<svg width="32" height="32" viewBox="0 0 32 32" fill="none" xmlns="http://www.w3.org/2000/svg">
<path d="M15.9998 0C7.16338 0 0 7.16338 0 15.9998C0 23.0765 4.59944 29.0695 10.9681 31.1801C11.7435 31.3011 12.0399 30.8342 12.0399 30.42C12.0399 30.04 12.0199 28.7801 12.0199 27.4401C7.9999 28.1801 6.95988 26.4601 6.63995 25.5601C6.28478 24.6848 5.72189 23.9093 4.99993 23.3002C4.43997 23.0002 3.63998 22.2602 4.97992 22.2401C6.01829 22.3528 6.93653 22.9649 7.43995 23.8801C7.44152 23.883 7.44307 23.8857 7.44464 23.8885C8.36797 25.5362 10.4521 26.1234 12.0999 25.2C12.1691 24.3867 12.5316 23.6261 13.1199 23.0601C9.55994 22.6601 5.83997 21.2801 5.83997 15.1602C5.81741 13.57 6.40422 12.0316 7.47989 10.8603C6.99073 9.4782 7.04796 7.96151 7.63993 6.62031C7.63993 6.62031 8.97985 6.2003 12.0399 8.26033C14.6579 7.54022 17.4217 7.54022 20.0398 8.26033C23.0997 6.18027 24.4397 6.62031 24.4397 6.62031C25.0316 7.96151 25.0888 9.47818 24.5997 10.8603C25.6786 12.0296 26.2659 13.5693 26.2397 15.1602C26.2397 21.3001 22.4997 22.6601 18.9398 23.0601C19.7124 23.8431 20.1066 24.9234 20.0198 26.0201C20.0198 28.1601 19.9997 29.8801 19.9997 30.42C19.9987 30.5053 20.0114 30.5901 20.0374 30.6713C20.1705 31.0854 20.6137 31.3131 21.0279 31.1813C27.3985 29.0719 31.9996 23.0778 31.9996 15.9998C31.9996 7.16338 24.8362 0 15.9998 0Z" fill="#57FFA0"/>
</svg>
