<svg width="32" height="32" viewBox="0 0 32 32" fill="none" xmlns="http://www.w3.org/2000/svg">
<g id="Group 16">
<path id="Vector" d="M29.6348 0.000176263H2.36517C1.07531 -0.0152476 0.0166971 1.01071 0 2.29244V29.7083C0.0167937 30.99 1.07541 32.0156 2.36517 31.9998H29.6348C30.9248 32.0157 31.9836 30.9898 32 29.708V2.29244C31.9835 1.01061 30.9248 -0.0154556 29.6348 0.000176263ZM9.70118 26.7871H4.86754V12.3376H9.70118V26.7871ZM7.68085 10.3673C7.54886 10.3768 7.4164 10.376 7.28461 10.3649H7.25286C5.86405 10.4481 4.6703 9.39685 4.58657 8.01679C4.50285 6.63673 5.56077 5.45051 6.94959 5.36732C7.07185 5.35999 7.19459 5.36156 7.31665 5.37191C8.70487 5.272 9.91169 6.30931 10.0123 7.68878C10.1129 9.06814 9.06897 10.2674 7.68085 10.3673ZM27.1287 26.787H22.2959V19.0578C22.2959 17.115 21.596 15.7901 19.8475 15.7901C18.7304 15.7966 17.7379 16.4997 17.3675 17.5469C17.2438 17.9248 17.1898 18.3216 17.2083 18.7186V26.787H12.3754C12.3754 26.7827 12.4388 13.6932 12.3759 12.3378H17.2088V14.3858C18.0995 12.8454 19.7785 11.9253 21.5647 11.9988C24.7446 11.9988 27.1287 14.064 27.1287 18.5021V26.787H27.1287Z" fill="#57FFA0"/>
</g>
</svg>
