<svg width="82" height="50" viewBox="0 0 117 71" fill="none" xmlns="http://www.w3.org/2000/svg">
<path d="M26.8139 35.4913C26.8139 30.6163 27.6577 26.6436 29.3452 23.5733C32.2749 18.1592 36.3647 15.4522 41.6147 15.4522C44.6616 15.4522 47.2631 16.6827 49.4194 19.1436V3.49908L56.0991 0.335022H56.4506V35.4913C56.4506 40.3663 55.6069 44.3389 53.9194 47.4092C50.9428 52.8233 46.8413 55.5303 41.6147 55.5303C36.4585 55.5303 32.3686 52.8233 29.3452 47.4092C27.6577 44.3858 26.8139 40.4131 26.8139 35.4913ZM33.8452 35.4913C33.8452 39.8975 34.3256 43.0381 35.2866 44.9131C36.8803 48.0069 38.9897 49.5538 41.6147 49.5538C44.2631 49.5538 46.3725 48.0069 47.9428 44.9131C48.9272 42.9678 49.4194 39.8272 49.4194 35.4913C49.4194 31.1553 48.9272 28.0147 47.9428 26.0694C46.396 22.9991 44.2866 21.4639 41.6147 21.4639C38.9428 21.4639 36.8335 23.0225 35.2866 26.1397C34.3256 28.085 33.8452 31.2022 33.8452 35.4913ZM69.2631 26.1046C68.3256 28.003 67.8569 31.1319 67.8569 35.4913C67.8569 39.8506 68.3374 42.9913 69.2983 44.9131C70.8452 48.0069 72.9546 49.5538 75.6264 49.5538C78.2983 49.5538 80.4077 48.0069 81.9546 44.9131C82.9389 42.9678 83.4311 39.8272 83.4311 35.4913C83.4311 31.1553 82.9389 28.0147 81.9546 26.0694C80.4311 22.9756 78.3217 21.4288 75.6264 21.4288C72.9311 21.4288 70.81 22.9874 69.2631 26.1046ZM60.7905 70.6475V35.4913C60.7905 30.6163 61.6342 26.6436 63.3217 23.5733C66.2983 18.1592 70.3999 15.4522 75.6264 15.4522C80.7827 15.4522 84.8725 18.1592 87.896 23.5733C89.5835 26.5967 90.4272 30.5694 90.4272 35.4913C90.4272 40.3663 89.5952 44.3389 87.9311 47.4092C84.978 52.8233 80.8764 55.5303 75.6264 55.5303C72.5796 55.5303 69.978 54.2999 67.8217 51.8389V67.4835L61.1421 70.6475H60.7905Z" fill="#57FFA0"/>
<mask id="path-2-inside-1" fill="white">
<path d="M0 37.0607L33.7956 1.00006L11.3414 37.0607L35.9078 71.0001L0 37.0607Z"/>
</mask>
<path d="M0 37.0607L33.7956 1.00006L11.3414 37.0607L35.9078 71.0001L0 37.0607Z" stroke="#57FFA0" stroke-width="10" mask="url(#path-2-inside-1)"/>
<mask id="path-3-inside-2" fill="white">
<path d="M117 37.0606L83.2044 1L105.659 37.0606L81.0922 71L117 37.0606Z"/>
</mask>
<path d="M117 37.0606L83.2044 1L105.659 37.0606L81.0922 71L117 37.0606Z" stroke="#57FFA0" stroke-width="10" mask="url(#path-3-inside-2)"/>
</svg>
